<svg width="1587" height="197" viewBox="0 0 1587 197" fill="none" xmlns="http://www.w3.org/2000/svg">
<path d="M1340.7 176.8C1340.2 176.5 1339.8 175.8 1339.3 175.8C1336.8 175.7 1334.3 175.9 1331.8 175.7C1325.1 175.4 1318.3 175.4 1311.6 174.6C1304.9 173.8 1298.3 173.2 1291.6 172.6C1285.5 172 1279.5 170.6 1273.4 169.7C1268.1 168.9 1262.7 168.5 1257.4 167.6C1250.4 166.4 1243.4 165.2 1236.5 163.6C1227.4 161.5 1218.4 159 1209.4 156.7C1205.8 155.8 1202.3 154.7 1198.7 153.7C1186.6 150.5 1174.6 146.8 1162.5 143.4C1150.7 140.1 1138.9 137 1127.1 133.9C1115.9 130.9 1104.4 129 1093.1 126.6C1085.4 125 1077.7 123.2 1069.9 121.7C1065 120.8 1059.9 119.9 1054.9 119.8C1053 119.7 1052.3 117.4 1050.2 118.3C1048.6 119 1046.8 118.5 1045 117.9C1042.4 117 1039.6 117 1036.8 116.7C1033.1 116.3 1029.1 116.7 1025.6 115.5C1021.6 114.1 1017.3 115.8 1013.6 113.7C1013.5 113.6 1013.3 113.7 1013.1 113.7C1008.2 113.4 1003.3 113.1 998.4 112.7C995.5 112.5 992.6 112 989.7 111.7C986.9 111.5 984.1 112.2 981.5 110.7C981.1 110.5 980.5 110.7 980 110.7C965.8 110.2 951.5 109.3 937.3 109.6C933.9 109.7 930.4 108.4 927.1 108.8C914.5 110.4 901.9 109.2 889.4 109.8C886.9 109.9 884.5 109.9 882 110.1C879.4 110.2 876.8 110.4 874.2 110.8C866.8 111.9 859.2 112.1 851.8 113C848.2 113.5 844.4 113.3 840.8 114.6C838.2 115.5 835 115.2 832.1 115.6C825.5 116.6 819 117.7 812.4 118.7C806 119.7 799.4 120 793 120.8C790.1 121.2 787.3 121.8 784.5 122.5C781.6 123.2 778.7 122.5 775.8 123.5C772.7 124.6 769 124.3 765.6 124.7C763.7 124.9 761.8 125.4 759.9 125.7C758 125.9 756.1 125.9 754.1 126.5C751.2 127.4 748 126.8 744.9 127.6C741.1 128.5 737.1 128.3 733.2 128.8C731.3 129 729.4 129.4 727.5 129.8C725.8 130.1 724 130.4 722.3 130.7C721.6 130.8 721 130.8 720.3 130.8C715.1 130.8 710 131.9 704.8 132.7C700.3 133.4 695.7 133.5 691.1 133.8C685.7 134.1 680.4 134.7 675.1 135.7C671.9 136.3 668.6 136 665.4 136.6C660.6 137.6 655.5 136.9 650.7 137.9C645.9 138.9 640.9 137.8 636.2 139.7C635.9 139.8 635.5 139.7 635.2 139.7C629.6 140 624 139.9 618.5 140.8C613.3 141.7 608 140.8 603 142.6C602.7 142.7 602.3 142.6 602 142.6C595.3 142.9 588.5 143.2 581.8 143.6C578.7 143.8 575.6 144.3 572.6 144.6C569.7 144.9 566.6 144 563.9 145.6C563.6 145.7 563.2 145.6 562.9 145.6C554.7 145.9 546.4 145.9 538.2 146.7C532.1 147.3 525.9 146.8 520 147.8C514.4 148.7 508.8 148 503.2 148.7C494.5 149.8 485.7 148.9 477 149.8C459.4 151.5 441.8 150.2 424.3 150.6C414.6 150.8 405 150.8 395.3 150.6C384.4 150.4 373.4 150.4 362.6 149.4C357.7 149 352.7 149 347.9 148.5C340.3 147.7 332.6 147 324.9 146.4C318.7 145.9 312.6 145.2 306.4 144.4C300.3 143.6 294.1 143.4 288.1 141.7C284.9 140.8 281.3 141 277.9 140.5C273.1 139.8 268.3 139.1 263.5 138.2C259.1 137.4 254.7 136.4 250.2 135.5C243.3 134.1 236.3 132.8 229.4 131.1C222 129.4 214.7 127.4 207.4 125.5C195.1 122.2 182.9 118.8 171.1 114C161.2 110 151.2 106.5 141.5 102.1C133 98.7 125.4 94 117.4 90C110.1 86.3 103.4 81.9 96.6998 77.2C90.7998 73.1 84.7998 69.2 79.5998 64.1C76.4998 61.1 73.1998 58.4 70.0998 55.5C62.8998 48.7 56.0998 41.5 50.7998 32.6C52.5998 31 54.0998 28.7 57.1998 30.5C57.5998 30.7 58.0998 30.8 58.5998 30.8C65.6998 31.1 72.6998 31.5 79.7998 31.8C86.1998 32.1 92.5998 32.6 98.9998 33C103.1 33.3 107.2 33.1 111.2 33.8C116.8 34.8 122.5 34 127.9 34.9C132.2 35.6 136.5 35.1 140.6 35.8C146 36.8 151.5 36 156.8 36.9C161.4 37.7 166.2 36.8 170.5 37.9C176.7 39.5 183 37.5 189 39.7C189.3 39.8 189.7 39.7 190 39.7C197.7 40 205.5 39.9 213.2 40.8C218.8 41.5 224.4 41 229.9 41.9C234 42.6 238.1 42.1 242.1 42.8C247.7 43.8 253.3 43 258.8 43.9C262.9 44.6 267 44.1 271 44.8C276.6 45.8 282.3 45 287.7 45.9C292 46.6 296.3 46.1 300.4 46.8C305.8 47.8 311.3 47 316.6 47.9C321.2 48.7 326 47.8 330.3 48.9C336.5 50.4 342.8 48.5 348.8 50.7C349.1 50.8 349.5 50.7 349.8 50.7C357.5 51 365.3 50.9 373 51.8C378.6 52.5 384.2 52 389.7 52.9C393.8 53.6 397.9 53.1 401.9 53.8C407.5 54.8 413.2 54 418.6 54.9C422.9 55.6 427.2 55.1 431.3 55.8C436.7 56.8 442.2 56 447.5 56.9C451.8 57.6 456.1 57.1 460.2 57.8C465.6 58.8 471.1 58 476.4 58.9C481 59.7 485.8 58.8 490.1 59.9C496.3 61.4 502.6 59.5 508.6 61.7C508.9 61.8 509.3 61.7 509.6 61.7C517.3 62 525.1 61.9 532.8 62.8C538.4 63.5 544 63 549.5 63.9C553.6 64.6 557.7 64.1 561.7 64.8C567.3 65.8 573 65 578.4 65.9C582.7 66.6 587 66.1 591.1 66.8C596.5 67.8 602 67 607.3 67.9C611.6 68.6 615.9 68.1 620 68.8C625.4 69.8 630.9 69 636.2 69.9C640.8 70.7 645.6 69.8 649.9 70.9C656.1 72.4 662.4 70.5 668.4 72.7C668.7 72.8 669.1 72.7 669.4 72.7C677.1 73 684.9 72.9 692.6 73.8C698.2 74.5 703.8 74 709.3 74.9C713.4 75.6 717.5 75.1 721.5 75.8C727.1 76.8 732.8 76 738.2 76.9C742.5 77.6 746.8 77.1 750.9 77.8C756.3 78.8 761.8 78 767.1 78.9C771.4 79.6 775.7 79.1 779.8 79.8C785.2 80.8 790.7 80 796 80.9C800.6 81.7 805.3 80.8 809.7 81.9C815.9 83.4 822.2 81.5 828.2 83.7C828.5 83.8 828.9 83.7 829.2 83.7C836.9 84 844.7 83.9 852.4 84.8C858 85.5 863.6 85 869.1 85.9C873.2 86.6 877.3 86.1 881.3 86.8C886.9 87.8 892.6 87 898 87.9C902.3 88.6 906.6 88.1 910.7 88.8C916.1 89.8 921.6 89 926.9 89.9C931.2 90.6 935.5 90.1 939.6 90.8C945 91.8 950.5 91 955.8 91.9C960.4 92.7 965.1 91.8 969.5 92.9C975.7 94.4 982 92.5 988 94.7C988.3 94.8 988.7 94.7 989 94.7C996.7 95 1004.5 94.9 1012.2 95.8C1017.8 96.5 1023.4 96 1028.9 96.9C1033 97.6 1037.1 97.1 1041.1 97.8C1046.7 98.8 1052.4 98 1057.8 98.9C1062.1 99.6 1066.4 99.1 1070.5 99.8C1075.9 100.8 1081.4 100 1086.7 100.9C1091 101.6 1095.3 101.1 1099.4 101.8C1104.8 102.8 1110.3 102 1115.6 102.9C1120.2 103.7 1125 102.8 1129.3 103.9C1135.5 105.4 1141.8 103.5 1147.8 105.7C1148.1 105.8 1148.5 105.7 1148.8 105.7C1156.5 106 1164.3 105.9 1172 106.8C1177.6 107.5 1183.2 107 1188.7 107.9C1192.8 108.6 1196.9 108.1 1200.9 108.8C1206.5 109.8 1212.2 109 1217.6 109.9C1221.9 110.6 1226.2 110.1 1230.3 110.8C1235.7 111.8 1241.2 111 1246.5 111.9C1250.8 112.6 1255.1 112.1 1259.2 112.8C1264.6 113.8 1270.1 113 1275.4 113.9C1280 114.7 1284.8 113.8 1289.1 114.9C1295.3 116.4 1301.6 114.5 1307.6 116.7C1307.9 116.8 1308.3 116.7 1308.6 116.7C1316.3 117 1324.1 116.9 1331.8 117.8C1337.4 118.5 1343 118 1348.5 118.9C1352.6 119.6 1356.7 119.1 1360.7 119.8C1366.3 120.8 1372 120 1377.4 120.9C1381.7 121.6 1386 121.1 1390.1 121.8C1395.5 122.8 1401 122 1406.3 122.9C1410.6 123.6 1414.9 123.1 1419 123.8C1424.4 124.8 1429.9 124 1435.2 124.9C1439.8 125.7 1444.6 124.8 1448.9 125.9C1455.1 127.4 1461.4 125.5 1467.4 127.7C1467.7 127.8 1468.1 127.7 1468.4 127.7C1476.1 128 1483.9 127.9 1491.6 128.8C1497.2 129.5 1502.8 129 1508.3 129.9C1512.4 130.6 1516.5 130.1 1520.5 130.8C1526.1 131.8 1531.7 131.2 1537.2 131.9C1540.5 132.3 1543.7 132.8 1546.9 132.7C1549.4 132.6 1550.9 133.7 1552.1 136.1C1550.9 136.9 1549.8 137.8 1548.6 138.5C1540.5 143.6 1532.2 148.3 1523.4 152.1C1514.6 155.9 1505.7 159 1496.6 161.8C1488.9 164.2 1481.2 166.3 1473.3 167.9C1467.1 169.1 1460.9 170 1454.6 170.9C1449.3 171.6 1444 172.3 1438.6 172.9C1431.9 173.7 1425.3 174.2 1418.6 175C1412.1 175.8 1405.8 175.6 1399.3 175.8C1398.8 175.8 1398.3 176.4 1397.9 176.8C1380 176.8 1360.4 176.8 1340.7 176.8Z" fill="url(#paint0_linear_815_20)"/>
<defs>
<linearGradient id="paint0_linear_815_20" x1="802.526" y1="80.3371" x2="797.33" y2="184.994" gradientUnits="userSpaceOnUse">
<stop offset="0.0655724" stop-color="#F9F9F9"/>
<stop offset="0.908" stop-color="#D0C5FD"/>
</linearGradient>
</defs>
</svg>
