<svg width="582" height="470" viewBox="0 0 582 470" fill="none" xmlns="http://www.w3.org/2000/svg">
<path d="M446.34 139.05C441.44 142.01 437.69 144.09 434.13 146.46C415.07 159.11 399.83 175.71 387.6 194.71C371.48 219.74 356.45 245.48 341.21 271.07C329.87 290.1 319.1 309.54 303.44 325.5C298.71 330.33 293.28 334.62 287.65 338.39C279.13 344.09 270.36 343.35 261.97 337.56C250.23 329.47 241.03 318.83 233.68 306.91C219.01 283.13 205.14 258.86 190.88 234.82C176.86 211.18 162.79 187.58 143.82 167.38C134.03 156.96 122.94 148.29 110.47 141.35C109.63 140.88 108.86 140.3 107 139.08C128.64 142.87 146.81 151.25 163.24 163.8C182.71 178.66 196.43 198.25 208.98 218.79C223.03 241.79 236.46 265.19 250.91 287.94C256.11 296.13 263.14 303.26 269.96 310.28C274.76 315.22 276.43 314.83 281.88 310.48C291.93 302.46 299.4 292.21 306.03 281.4C320.23 258.28 333.88 234.83 348.2 211.79C358.53 195.18 370.85 180.11 385.67 167.18C402.79 152.25 422.6 143.21 446.34 139.05Z" fill="url(#paint0_linear_139_2)"/>
<path d="M276 264.36C287.01 246.3 297.33 229.02 307.99 211.96C320.08 192.61 332.19 173.23 349.29 157.66C374.04 135.13 403.39 126.89 437.61 129.45C431.73 131.38 427.02 132.75 422.42 134.46C389.25 146.78 364.41 169.32 345.54 198.6C330.49 221.95 316.61 246.06 301.7 269.5C296.74 277.3 290.69 284.55 284.28 291.22C278.05 297.69 273.97 297.73 267.61 291.23C261.26 284.74 255.31 277.59 250.53 269.9C236.65 247.58 223.72 224.67 209.88 202.32C196.68 181.01 180.25 162.57 159.01 148.77C145.9 140.27 131.68 134.43 116.4 129.87C117.83 129.65 119.26 129.28 120.7 129.22C162.4 127.41 196.74 142.37 220.87 176.55C237.83 200.57 252.38 226.29 267.99 251.26C270.53 255.33 273 259.44 276 264.35V264.36Z" fill="url(#paint1_linear_139_2)"/>
<path d="M294.5 206L302 202C299.2 204.8 286.5 233.833 280.5 248L294.5 206Z" fill="url(#paint2_linear_139_2)"/>
<path d="M350.95 100C390.95 38.8 451.284 13.1667 476.45 8C409.65 36 371.617 78.6667 360.95 96.5L350.95 100Z" fill="url(#paint3_linear_139_2)"/>
<path d="M256.7 206L249.2 202C252 204.8 264.7 233.833 270.7 248L256.7 206Z" fill="url(#paint4_linear_139_2)"/>
<path d="M202 100C162 38.8 101.667 13.1667 76.5 8C143.3 36 181.333 78.6667 192 96.5L202 100Z" fill="url(#paint5_linear_139_2)"/>
<path d="M287.322 73.0925C283.851 75.3261 281.425 78.6948 278.826 81.8798C278.992 75.9876 278.382 70.2383 276.104 64.7707C274.501 60.9283 272.307 57.5391 269.511 54.5746C268.005 52.9781 267.55 51.0466 268.16 48.956C268.739 46.9633 270.241 45.8527 272.134 45.5219C274.501 45.1095 276.239 46.5509 277.668 48.221C283.7 55.2688 287.017 63.5375 287.326 73.0925H287.322Z" fill="#7DB743"/>
<path d="M326.854 135.519C321.101 137.732 315.153 139.405 309.272 141.248C292.733 146.415 282.295 157.489 277.986 174.601C276.24 181.542 274.335 188.444 272.332 196.024C269.43 193.025 266.829 190.325 264.222 187.634C264.29 184.033 265.265 180.663 266.693 177.401C268.81 176.606 268.462 174.455 268.878 172.882C272.672 158.569 279.959 146.824 292.628 139.02C300.254 134.323 308.728 131.856 317.239 129.534C322.16 128.185 326.778 126.257 330.573 122.663C343.453 110.479 341.329 89.611 326.151 79.2388C310.398 68.4733 289.4 74.2493 280.866 91.7163C279.883 93.7367 279.029 95.8112 277.865 98.4023C275.635 94.1994 273.791 90.4515 271.319 87.1047C272.876 84.2668 274.343 81.3672 277.094 79.4778C282.174 74.9202 287.193 70.4243 293.678 67.7869C316.748 58.4249 344.496 72.3137 347.814 99.8752C349.575 114.45 340.656 130.205 326.854 135.519Z" fill="#7DB743"/>
<path d="M346.655 128.624C346.481 140.346 343.676 150.348 338.589 159.672C327.652 179.707 310.229 190.14 288.717 194.451C286.744 194.845 284.801 195.408 282.821 195.708C280.931 196.001 279.827 195.269 280.508 193.102C282.836 185.652 284.121 177.902 286.872 170.576C291.317 158.762 300.123 151.968 311.529 148.066C318.982 145.513 326.828 144.14 333.767 140.038C338.499 137.246 342.044 133.097 346.639 128.624H346.655Z" fill="#B784A7"/>
<path d="M263.247 140.824C264.804 136.159 266.202 132.365 267.328 128.478C268.258 125.277 270.072 123.743 273.383 124.074C274.63 124.198 275.93 124.275 277.147 124.067C286.46 122.47 294.003 125.64 300.088 133.19C293.451 133.19 286.747 133.483 280.072 133.082C276.142 132.843 274.585 134.339 273.595 137.971C271.977 143.893 269.929 149.693 267.948 155.5C267.079 158.068 266.792 161.368 262.997 161.322C259.263 161.276 258.893 158.152 258.114 155.469C254.395 142.559 250.684 129.642 246.965 116.725C246.655 115.638 246.277 114.574 245.695 112.761C243.798 118.676 241.999 123.851 240.487 129.118C239.565 132.318 237.925 133.614 234.538 133.56C222.716 133.375 210.887 133.49 199.058 133.475C194.636 133.467 192.497 131.91 192.602 128.887C192.701 125.918 194.847 124.452 199.284 124.437C209.096 124.398 218.914 124.26 228.726 124.46C231.674 124.522 232.875 123.488 233.714 120.72C236.148 112.638 238.915 104.656 241.447 96.6055C242.248 94.0452 243.405 92.0787 246.33 92.2098C249.059 92.3332 250.079 94.292 250.744 96.7057C254.252 109.415 257.812 122.108 261.372 134.794C261.856 136.513 262.423 138.202 263.239 140.824H263.247Z" fill="#4169E1"/>
<path d="M304.638 123.535C298.682 125.979 293.285 126.134 289.468 119.81C289.014 119.062 288.251 119.046 287.525 118.831C280.692 116.81 278.25 108.998 282.831 103.268C284.381 101.333 285.053 99.2891 285.9 97.0296C287.691 92.2484 290.617 87.9915 292.521 83.1023C294.267 78.6141 300.897 77.8353 305.084 80.7117C306.77 81.8685 307.707 82.1152 309.566 80.8659C315.409 76.9484 322.945 80.997 323.27 88.0841C323.346 89.7575 323.573 91.0993 325.054 91.9862C325.16 92.0479 325.281 92.1327 325.334 92.2407C328.116 97.6774 331.358 102.937 333.513 108.62C335.055 112.692 331.933 117.08 327.549 118.846C326.422 119.301 325.153 119.278 324.329 120.573C321.192 125.486 316.679 125.802 311.683 124.252C310.799 123.974 309.582 123.18 309.612 125.069C309.642 127.09 308.516 127.329 306.936 127.306C305.069 127.275 305.099 125.979 305.024 124.661C305.001 124.314 304.797 123.974 304.631 123.527L304.638 123.535Z" fill="#B784A7"/>
<path d="M277.097 79.4778C274.346 81.3672 272.879 84.2668 271.322 87.097L271.315 87.1047C261.995 74.9974 245.123 70.9873 231.457 77.6425C217.768 84.3131 210.89 99.1349 214.458 114.612C214.956 116.772 214.82 117.412 212.424 117.435C205.07 117.504 204.949 117.504 204.518 110.139C203.482 92.2792 212.409 76.7016 227.95 69.2599C243.234 61.9415 262.524 65.2267 274.973 77.28C275.699 77.9895 276.386 78.7452 277.097 79.4778Z" fill="#7DB743"/>
<path d="M277.097 79.4778C274.346 81.3672 272.879 84.2668 271.322 87.097L271.315 87.1047C261.995 74.9974 245.123 70.9873 231.457 77.6425C217.768 84.3131 210.89 99.1349 214.458 114.612C214.956 116.772 214.82 117.412 212.424 117.435C205.07 117.504 204.949 117.504 204.518 110.139C203.482 92.2792 212.409 76.7016 227.95 69.2599C243.234 61.9415 262.524 65.2267 274.973 77.28C275.699 77.9895 276.386 78.7452 277.097 79.4778Z" fill="#7DB743"/>
<path d="M266.691 177.401C265.262 180.663 264.287 184.033 264.219 187.634C249.162 172.257 234.105 156.88 219.056 141.503C219.207 141.217 219.366 140.932 219.524 140.647C222.873 140.647 226.229 140.716 229.57 140.616C231.392 140.562 232.215 141.881 233.251 142.953C244.4 154.428 255.549 165.918 266.691 177.401Z" fill="#7DB743"/>
<path d="M309.754 101.371C309.754 97.1376 309.739 92.9039 309.754 88.6702C309.761 86.5032 310.85 84.9455 312.762 84.2206C314.554 83.5419 316.277 83.9815 317.486 85.6087C318.862 87.4595 319.217 89.3103 316.413 89.9041C314.69 90.2665 313.956 90.8757 314.244 92.6648C314.569 94.7007 315.846 94.3845 317.343 94.2843C322.566 93.9296 324.516 96.5438 323.095 101.695C322.588 103.523 323.133 104.687 325.151 104.834C327.585 105.011 328.59 106.831 329.127 108.859C329.686 110.98 328.681 112.684 326.882 113.687C325.196 114.628 323.73 113.972 322.619 112.445C321.447 110.841 320.102 109.052 318.099 110.988C316.194 112.839 317.804 114.412 319.081 115.9C320.759 117.859 320.192 119.463 317.63 120.211C313.851 121.314 309.928 118.144 309.784 113.671C309.655 109.569 309.754 105.466 309.754 101.356V101.371Z" fill="white"/>
<path d="M304.463 101.587C304.463 105.698 304.531 109.808 304.44 113.918C304.365 117.281 301.765 120.088 298.65 120.381C296.919 120.543 295.362 120.149 294.312 118.622C293.08 116.841 294.886 116.162 295.642 115.152C296.7 113.725 297.6 112.129 296.027 110.741C294.705 109.577 293.223 110.016 292.241 111.666C291.273 113.286 290.041 114.697 287.962 113.826C286.171 113.078 285.354 111.481 285.324 109.515C285.286 107.34 286.314 105.459 288.249 105.058C291.908 104.317 292.233 102.906 290.373 99.8368C289.141 97.8086 291.122 95.0092 294.055 94.3229C295.256 94.0453 296.557 94.1687 297.811 94.1455C298.915 94.1301 299.837 93.9296 299.875 92.5261C299.905 91.3616 300.087 90.0506 298.575 89.7344C296.987 89.4028 294.931 89.5802 295.74 86.9428C296.421 84.7141 298.091 83.6576 300.396 83.8967C302.641 84.1281 304.312 85.2154 304.372 87.6909C304.478 92.3102 304.403 96.9372 304.403 101.564C304.425 101.564 304.448 101.564 304.463 101.564V101.587Z" fill="white"/>
<rect x="299.479" y="159.618" width="25.9098" height="9.71616" rx="2" fill="#D7A2C7"/>
<circle cx="306.438" cy="164.638" r="2.42904" fill="white"/>
<circle cx="312.916" cy="164.638" r="2.42904" fill="white"/>
<circle cx="319.394" cy="164.638" r="2.42904" fill="white"/>
<path d="M318.184 102.975C317.587 104.818 316.907 106.908 314.473 106.993C313.059 107.047 312.122 105.659 312.386 104.34C312.802 102.25 314.087 100.508 316.378 100.361C317.731 100.276 318.161 101.533 318.184 102.968V102.975Z" fill="#B784A7"/>
<path d="M299.446 107.086C297.556 106.237 296.627 104.456 296.332 102.451C296.158 101.287 296.967 100.091 298.32 100.23C301.003 100.5 301.457 102.837 301.782 104.919C301.993 106.237 300.837 106.847 299.446 107.086Z" fill="#B784A7"/>
<path d="M301.634 56.5104C307.518 41.3803 315.939 29.0097 326.676 17.9873C312.577 24.0615 303.521 35.0681 297.193 48.9771C289.85 36.2893 296.194 16.2268 309.897 7.77364C324.218 -1.04434 339.967 -0.473391 357 0.573348C350.688 15.7035 345.819 30.6909 338.365 44.2826C331.561 56.6849 320.015 59.5713 301.634 56.5104Z" fill="#DFFF00"/>
<g filter="url(#filter0_i_139_2)">
<circle cx="59.5" cy="47" r="10" fill="#B7F6FB"/>
</g>
<g filter="url(#filter1_i_139_2)">
<circle cx="91.5" cy="51" r="8" fill="#B7F6FB"/>
</g>
<g filter="url(#filter2_i_139_2)">
<circle cx="159.5" cy="32" r="8" fill="#B7F6FB"/>
</g>
<g filter="url(#filter3_i_139_2)">
<circle cx="457.5" cy="57" r="8" fill="#B7F6FB"/>
</g>
<g filter="url(#filter4_i_139_2)">
<circle cx="423.5" cy="17" r="8" fill="#B7F6FB"/>
</g>
<g filter="url(#filter5_i_139_2)">
<circle cx="538.5" cy="49" r="8" fill="#B7F6FB"/>
</g>
<path d="M79.9434 103.974L69.9434 144.974L66.0703 145.023L58.1709 115.923L52.374 131H34V127H49.627L58.8281 103.075L67.8955 136.484L76.0566 103.026L79.9434 103.974Z" fill="url(#paint6_linear_139_2)"/>
<path d="M67.5 94H77V97.5C90.2 95.1 84.1667 120.167 79.5 133C99.1 127.8 102 104.833 101 94H111L90 68L67.5 94Z" fill="url(#paint7_linear_139_2)"/>
<path d="M479.999 98.5C475.199 102.1 466.999 120 463.499 128.5C438.699 80.5 490.499 57.8333 519.499 52.5V84.5C520.299 127.3 487.833 134.667 471.499 133C473.899 119.8 480.166 109.167 482.999 105.5C494.199 115.1 499.666 106.833 500.999 101.5C502.999 92.3 493.833 82.3333 488.999 78.5C484.199 81.7 480.999 93.1667 479.999 98.5Z" fill="url(#paint8_linear_139_2)"/>
<path d="M517.923 465H514.371L561.507 397.8H565.059L541.539 431.4H566.979V397.8H581.379V465H566.979V434.28H539.523L517.923 465Z" fill="url(#paint9_linear_139_2)"/>
<path d="M483.283 431.4C486.035 431.4 488.307 430.632 490.099 429.096C491.955 427.56 493.331 425.672 494.227 423.432C495.187 421.128 495.667 418.632 495.667 415.944C495.667 413.256 495.187 410.792 494.227 408.552C493.331 406.248 491.955 404.36 490.099 402.888C488.307 401.352 486.035 400.584 483.283 400.584L456.115 400.68V465H441.715V397.8H491.923C495.955 397.8 499.315 398.696 502.003 400.488C504.755 402.28 506.803 404.552 508.147 407.304C509.491 409.992 510.163 412.904 510.163 416.04C510.163 419.176 509.491 422.12 508.147 424.872C506.803 427.56 504.755 429.8 502.003 431.592C499.315 433.384 495.955 434.28 491.923 434.28H489.907L511.507 465H494.995L471.475 431.4H483.283Z" fill="url(#paint10_linear_139_2)"/>
<path d="M412.84 465V397.8H427.24V465H412.84Z" fill="url(#paint11_linear_139_2)"/>
<path d="M404.232 450.888C402.12 453.832 399.592 456.328 396.648 458.376C393.704 460.424 390.536 462.088 387.144 463.368C383.816 464.584 380.392 465.48 376.872 466.056C373.352 466.632 369.96 466.92 366.696 466.92C363.624 466.92 360.424 466.696 357.096 466.248C353.768 465.8 350.504 465.064 347.304 464.04C344.104 462.952 341.064 461.512 338.184 459.72C335.304 457.928 332.776 455.72 330.6 453.096C328.424 450.472 326.696 447.4 325.416 443.88C324.136 440.296 323.496 436.168 323.496 431.496C323.496 426.824 324.136 422.696 325.416 419.112C326.696 415.464 328.424 412.328 330.6 409.704C332.776 407.08 335.304 404.904 338.184 403.176C341.064 401.384 344.104 399.944 347.304 398.856C350.504 397.768 353.768 397 357.096 396.552C360.424 396.104 363.624 395.88 366.696 395.88C370.024 395.88 373.48 396.168 377.064 396.744C380.648 397.32 384.104 398.248 387.432 399.528C390.824 400.808 393.992 402.504 396.936 404.616C399.944 406.664 402.472 409.192 404.52 412.2H391.656C389.416 407.912 386.248 404.616 382.152 402.312C378.12 399.944 372.968 398.76 366.696 398.76C361.704 398.76 357.384 399.496 353.736 400.968C350.152 402.376 347.176 404.488 344.808 407.304C342.44 410.056 340.68 413.448 339.528 417.48C338.376 421.512 337.8 426.152 337.8 431.4C337.736 441.896 340.04 449.96 344.712 455.592C349.384 461.16 356.712 463.976 366.696 464.04C372.904 464.104 378.024 462.984 382.056 460.68C386.152 458.376 389.32 455.112 391.56 450.888H404.232Z" fill="url(#paint12_linear_139_2)"/>
<path d="M227.672 431.496C227.672 426.824 228.312 422.696 229.592 419.112C230.872 415.464 232.6 412.328 234.776 409.704C236.952 407.08 239.48 404.904 242.36 403.176C245.24 401.384 248.28 399.944 251.48 398.856C254.68 397.768 257.944 397 261.272 396.552C264.6 396.104 267.8 395.88 270.872 395.88C273.944 395.88 277.144 396.104 280.472 396.552C283.8 397 287.064 397.768 290.264 398.856C293.464 399.88 296.504 401.288 299.384 403.08C302.264 404.872 304.792 407.08 306.968 409.704C309.144 412.328 310.872 415.432 312.152 419.016C313.432 422.536 314.072 426.632 314.072 431.304C314.072 435.976 313.432 440.136 312.152 443.784C310.872 447.368 309.144 450.472 306.968 453.096C304.792 455.72 302.264 457.928 299.384 459.72C296.504 461.448 293.464 462.856 290.264 463.944C287.064 465.032 283.8 465.8 280.472 466.248C277.144 466.696 273.944 466.92 270.872 466.92C267.8 466.92 264.6 466.696 261.272 466.248C257.944 465.8 254.68 465.064 251.48 464.04C248.28 462.952 245.24 461.512 242.36 459.72C239.48 457.928 236.952 455.72 234.776 453.096C232.6 450.472 230.872 447.4 229.592 443.88C228.312 440.296 227.672 436.168 227.672 431.496ZM241.976 431.4C241.912 441.896 244.216 449.96 248.888 455.592C253.56 461.16 260.888 463.976 270.872 464.04C275.864 464.04 280.184 463.304 283.832 461.832C287.48 460.296 290.456 458.12 292.76 455.304C295.128 452.424 296.888 448.968 298.04 444.936C299.192 440.84 299.768 436.296 299.768 431.304C299.768 426.312 299.192 421.832 298.04 417.864C296.888 413.832 295.128 410.408 292.76 407.592C290.456 404.712 287.48 402.536 283.832 401.064C280.184 399.528 275.864 398.76 270.872 398.76C265.88 398.76 261.56 399.496 257.912 400.968C254.328 402.376 251.352 404.488 248.984 407.304C246.616 410.056 244.856 413.448 243.704 417.48C242.552 421.512 241.976 426.152 241.976 431.4Z" fill="url(#paint13_linear_139_2)"/>
<path d="M223.813 462.12V465H168.805V397.8H183.205V462.12H223.813Z" fill="url(#paint14_linear_139_2)"/>
<path d="M94.6562 465V397.8H149.664V400.68H109.056V431.4H133.248L131.232 434.28H109.056V462.12H155.424V465H94.6562Z" fill="url(#paint15_linear_139_2)"/>
<path d="M5.78906 397.8H22.3011L69.7251 465H53.2131L5.78906 397.8ZM75.4851 397.8V465H72.6051V397.8H75.4851Z" fill="url(#paint16_linear_139_2)"/>
<path d="M314.072 431.304C314.072 426.924 313.51 423.05 312.385 419.683L312.152 419.016C310.952 415.656 309.359 412.717 307.371 410.201L306.969 409.704C304.929 407.244 302.579 405.15 299.92 403.421L299.385 403.08C296.685 401.4 293.844 400.058 290.862 399.053L290.265 398.856C287.265 397.836 284.208 397.097 281.096 396.64L280.473 396.552C277.145 396.104 273.944 395.88 270.872 395.88V392.88C274.09 392.88 277.424 393.115 280.873 393.579C284.394 394.053 287.848 394.866 291.23 396.016H291.229C294.648 397.114 297.897 398.621 300.97 400.533C304.125 402.496 306.897 404.918 309.277 407.789C311.698 410.708 313.588 414.122 314.972 417.991L315.23 418.731C316.479 422.468 317.072 426.674 317.072 431.304C317.072 436.246 316.396 440.752 314.983 444.777L314.978 444.793C313.593 448.669 311.701 452.088 309.277 455.011C306.897 457.882 304.125 460.304 300.97 462.268L300.948 462.28L300.928 462.292C297.864 464.13 294.631 465.628 291.23 466.784C287.848 467.934 284.394 468.747 280.873 469.221C277.424 469.685 274.09 469.92 270.872 469.92C267.655 469.92 264.321 469.685 260.872 469.221C257.37 468.749 253.934 467.975 250.566 466.897L250.54 466.889L250.515 466.88C247.097 465.718 243.849 464.18 240.775 462.268C237.62 460.304 234.848 457.882 232.467 455.011C230.05 452.097 228.159 448.717 226.773 444.905L226.77 444.897L226.768 444.889C225.349 440.917 224.672 436.436 224.672 431.496C224.672 426.556 225.349 422.075 226.768 418.103C228.149 414.17 230.039 410.717 232.467 407.789C234.856 404.908 237.642 402.508 240.816 400.604C243.878 398.703 247.112 397.172 250.515 396.016C253.897 394.866 257.351 394.053 260.872 393.579C264.321 393.115 267.655 392.88 270.872 392.88V395.88C267.8 395.88 264.6 396.104 261.272 396.552L260.649 396.64C257.537 397.097 254.481 397.836 251.48 398.856L250.882 399.064C247.901 400.126 245.06 401.496 242.36 403.176C239.48 404.904 236.952 407.08 234.776 409.704L234.374 410.202C232.386 412.722 230.793 415.692 229.593 419.112C228.313 422.696 227.672 426.824 227.672 431.496L227.68 432.365C227.755 436.682 228.393 440.52 229.593 443.88C230.873 447.4 232.6 450.472 234.776 453.096C236.952 455.72 239.48 457.928 242.36 459.72C245.24 461.512 248.28 462.952 251.48 464.04C254.68 465.064 257.945 465.8 261.272 466.248C264.6 466.696 267.8 466.92 270.872 466.92C273.56 466.92 276.346 466.748 279.23 466.405L280.473 466.248C283.593 465.828 286.657 465.127 289.664 464.145L290.265 463.944C293.265 462.924 296.124 461.623 298.843 460.04L299.385 459.72C302.085 458.04 304.475 455.994 306.557 453.583L306.969 453.096C309.009 450.636 310.655 447.754 311.907 444.45L312.152 443.784C313.432 440.136 314.072 435.976 314.072 431.304ZM296.769 431.304C296.769 426.538 296.218 422.347 295.159 418.7L295.155 418.688V418.688C294.103 415.005 292.524 411.973 290.464 409.522L290.44 409.495L290.418 409.466C288.457 407.015 285.913 405.138 282.71 403.846L282.688 403.838L282.668 403.829C279.471 402.483 275.565 401.76 270.872 401.76C266.166 401.76 262.244 402.455 259.035 403.75L259.01 403.76C255.869 404.994 253.311 406.819 251.28 409.234L251.27 409.248L251.259 409.261C249.215 411.636 247.64 414.625 246.589 418.304C245.53 422.01 244.977 426.364 244.977 431.4V431.418C244.915 441.502 247.133 448.771 251.188 453.666C255.104 458.331 261.441 460.977 270.884 461.039C275.578 461.038 279.49 460.346 282.694 459.056C285.92 457.693 288.476 455.803 290.438 453.404L290.443 453.398C292.517 450.876 294.099 447.804 295.152 444.124C296.218 440.333 296.769 436.067 296.769 431.304ZM299.762 432.234C299.694 436.862 299.12 441.096 298.04 444.936C296.888 448.967 295.129 452.424 292.761 455.304L292.32 455.824C290.082 458.389 287.252 460.392 283.832 461.832C280.184 463.304 275.864 464.04 270.872 464.04L269.944 464.026C260.433 463.798 253.415 460.986 248.889 455.592C244.217 449.96 241.913 441.896 241.977 431.4C241.977 426.48 242.483 422.094 243.495 418.243L243.704 417.48C244.784 413.7 246.399 410.482 248.548 407.827L248.984 407.304C251.352 404.488 254.328 402.376 257.912 400.968C261.56 399.496 265.88 398.76 270.872 398.76C275.864 398.76 280.184 399.528 283.832 401.064C287.48 402.536 290.457 404.712 292.761 407.592C295.129 410.408 296.888 413.832 298.04 417.864C299.192 421.832 299.769 426.312 299.769 431.304L299.762 432.234Z" fill="url(#paint17_linear_139_2)"/>
<path d="M183.205 397.8H168.805V465H223.812V462.12H183.205V397.8ZM186.205 459.12H226.812V468H165.805V394.8H186.205V459.12Z" fill="url(#paint18_linear_139_2)"/>
<path d="M152.664 394.8V403.68H112.056V428.4H139.01L132.794 437.28H112.056V459.12H158.424V468H91.6562V394.8H152.664ZM94.6562 465H155.424V462.12H109.056V434.28H131.232L133.248 431.4H109.056V400.68H149.664V397.8H94.6562V465Z" fill="url(#paint19_linear_139_2)"/>
<path d="M23.8555 394.8L69.6045 459.627V397.8H72.6045V465H75.4844V397.8H69.6045V394.8H78.4844V468H51.6582L0 394.8H23.8555ZM5.78906 397.8L53.2129 465H69.7246L22.3008 397.8H5.78906Z" fill="url(#paint20_linear_139_2)"/>
<defs>
<filter id="filter0_i_139_2" x="49.5" y="37" width="20" height="20" filterUnits="userSpaceOnUse" color-interpolation-filters="sRGB">
<feFlood flood-opacity="0" result="BackgroundImageFix"/>
<feBlend mode="normal" in="SourceGraphic" in2="BackgroundImageFix" result="shape"/>
<feColorMatrix in="SourceAlpha" type="matrix" values="0 0 0 0 0 0 0 0 0 0 0 0 0 0 0 0 0 0 127 0" result="hardAlpha"/>
<feOffset/>
<feGaussianBlur stdDeviation="2"/>
<feComposite in2="hardAlpha" operator="arithmetic" k2="-1" k3="1"/>
<feColorMatrix type="matrix" values="0 0 0 0 0.377002 0 0 0 0 0.823742 0 0 0 0 0.859197 0 0 0 0.5 0"/>
<feBlend mode="normal" in2="shape" result="effect1_innerShadow_139_2"/>
</filter>
<filter id="filter1_i_139_2" x="83.5" y="43" width="16" height="16" filterUnits="userSpaceOnUse" color-interpolation-filters="sRGB">
<feFlood flood-opacity="0" result="BackgroundImageFix"/>
<feBlend mode="normal" in="SourceGraphic" in2="BackgroundImageFix" result="shape"/>
<feColorMatrix in="SourceAlpha" type="matrix" values="0 0 0 0 0 0 0 0 0 0 0 0 0 0 0 0 0 0 127 0" result="hardAlpha"/>
<feOffset/>
<feGaussianBlur stdDeviation="2"/>
<feComposite in2="hardAlpha" operator="arithmetic" k2="-1" k3="1"/>
<feColorMatrix type="matrix" values="0 0 0 0 0.377002 0 0 0 0 0.823742 0 0 0 0 0.859197 0 0 0 0.5 0"/>
<feBlend mode="normal" in2="shape" result="effect1_innerShadow_139_2"/>
</filter>
<filter id="filter2_i_139_2" x="151.5" y="24" width="16" height="16" filterUnits="userSpaceOnUse" color-interpolation-filters="sRGB">
<feFlood flood-opacity="0" result="BackgroundImageFix"/>
<feBlend mode="normal" in="SourceGraphic" in2="BackgroundImageFix" result="shape"/>
<feColorMatrix in="SourceAlpha" type="matrix" values="0 0 0 0 0 0 0 0 0 0 0 0 0 0 0 0 0 0 127 0" result="hardAlpha"/>
<feOffset/>
<feGaussianBlur stdDeviation="2"/>
<feComposite in2="hardAlpha" operator="arithmetic" k2="-1" k3="1"/>
<feColorMatrix type="matrix" values="0 0 0 0 0.377002 0 0 0 0 0.823742 0 0 0 0 0.859197 0 0 0 0.5 0"/>
<feBlend mode="normal" in2="shape" result="effect1_innerShadow_139_2"/>
</filter>
<filter id="filter3_i_139_2" x="449.5" y="49" width="16" height="16" filterUnits="userSpaceOnUse" color-interpolation-filters="sRGB">
<feFlood flood-opacity="0" result="BackgroundImageFix"/>
<feBlend mode="normal" in="SourceGraphic" in2="BackgroundImageFix" result="shape"/>
<feColorMatrix in="SourceAlpha" type="matrix" values="0 0 0 0 0 0 0 0 0 0 0 0 0 0 0 0 0 0 127 0" result="hardAlpha"/>
<feOffset/>
<feGaussianBlur stdDeviation="2"/>
<feComposite in2="hardAlpha" operator="arithmetic" k2="-1" k3="1"/>
<feColorMatrix type="matrix" values="0 0 0 0 0.377002 0 0 0 0 0.823742 0 0 0 0 0.859197 0 0 0 0.5 0"/>
<feBlend mode="normal" in2="shape" result="effect1_innerShadow_139_2"/>
</filter>
<filter id="filter4_i_139_2" x="415.5" y="9" width="16" height="16" filterUnits="userSpaceOnUse" color-interpolation-filters="sRGB">
<feFlood flood-opacity="0" result="BackgroundImageFix"/>
<feBlend mode="normal" in="SourceGraphic" in2="BackgroundImageFix" result="shape"/>
<feColorMatrix in="SourceAlpha" type="matrix" values="0 0 0 0 0 0 0 0 0 0 0 0 0 0 0 0 0 0 127 0" result="hardAlpha"/>
<feOffset/>
<feGaussianBlur stdDeviation="2"/>
<feComposite in2="hardAlpha" operator="arithmetic" k2="-1" k3="1"/>
<feColorMatrix type="matrix" values="0 0 0 0 0.377002 0 0 0 0 0.823742 0 0 0 0 0.859197 0 0 0 0.5 0"/>
<feBlend mode="normal" in2="shape" result="effect1_innerShadow_139_2"/>
</filter>
<filter id="filter5_i_139_2" x="530.5" y="41" width="16" height="16" filterUnits="userSpaceOnUse" color-interpolation-filters="sRGB">
<feFlood flood-opacity="0" result="BackgroundImageFix"/>
<feBlend mode="normal" in="SourceGraphic" in2="BackgroundImageFix" result="shape"/>
<feColorMatrix in="SourceAlpha" type="matrix" values="0 0 0 0 0 0 0 0 0 0 0 0 0 0 0 0 0 0 127 0" result="hardAlpha"/>
<feOffset/>
<feGaussianBlur stdDeviation="2"/>
<feComposite in2="hardAlpha" operator="arithmetic" k2="-1" k3="1"/>
<feColorMatrix type="matrix" values="0 0 0 0 0.377002 0 0 0 0 0.823742 0 0 0 0 0.859197 0 0 0 0.5 0"/>
<feBlend mode="normal" in2="shape" result="effect1_innerShadow_139_2"/>
</filter>
<linearGradient id="paint0_linear_139_2" x1="276.67" y1="139.05" x2="276.67" y2="342.304" gradientUnits="userSpaceOnUse">
<stop stop-color="#2DAC89"/>
<stop offset="1" stop-color="#105073"/>
</linearGradient>
<linearGradient id="paint1_linear_139_2" x1="277.005" y1="129" x2="277.005" y2="296.089" gradientUnits="userSpaceOnUse">
<stop stop-color="#B4C84C"/>
<stop offset="1" stop-color="#55AB3C"/>
</linearGradient>
<linearGradient id="paint2_linear_139_2" x1="291.25" y1="202" x2="291.25" y2="248" gradientUnits="userSpaceOnUse">
<stop stop-color="#B4C84C"/>
<stop offset="1" stop-color="#55AB3C"/>
</linearGradient>
<linearGradient id="paint3_linear_139_2" x1="413.7" y1="8" x2="413.7" y2="100" gradientUnits="userSpaceOnUse">
<stop stop-color="#B4C84C"/>
<stop offset="1" stop-color="#55AB3C"/>
</linearGradient>
<linearGradient id="paint4_linear_139_2" x1="259.95" y1="202" x2="259.95" y2="248" gradientUnits="userSpaceOnUse">
<stop stop-color="#B4C84C"/>
<stop offset="1" stop-color="#55AB3C"/>
</linearGradient>
<linearGradient id="paint5_linear_139_2" x1="139.25" y1="8" x2="139.25" y2="100" gradientUnits="userSpaceOnUse">
<stop stop-color="#B4C84C"/>
<stop offset="1" stop-color="#55AB3C"/>
</linearGradient>
<linearGradient id="paint6_linear_139_2" x1="56.9717" y1="103.026" x2="56.9717" y2="145.023" gradientUnits="userSpaceOnUse">
<stop stop-color="#248EBB"/>
<stop offset="1" stop-color="#295196"/>
</linearGradient>
<linearGradient id="paint7_linear_139_2" x1="89.25" y1="68" x2="89.25" y2="133" gradientUnits="userSpaceOnUse">
<stop stop-color="#248EBB"/>
<stop offset="1" stop-color="#295196"/>
</linearGradient>
<linearGradient id="paint8_linear_139_2" x1="488.242" y1="52.5" x2="488.242" y2="133.213" gradientUnits="userSpaceOnUse">
<stop stop-color="#B6D146"/>
<stop offset="1" stop-color="#6FB248"/>
</linearGradient>
<linearGradient id="paint9_linear_139_2" x1="581.449" y1="441" x2="323.449" y2="441" gradientUnits="userSpaceOnUse">
<stop stop-color="#2BA687"/>
<stop offset="1" stop-color="#125675"/>
</linearGradient>
<linearGradient id="paint10_linear_139_2" x1="581.449" y1="441" x2="323.449" y2="441" gradientUnits="userSpaceOnUse">
<stop stop-color="#2BA687"/>
<stop offset="1" stop-color="#125675"/>
</linearGradient>
<linearGradient id="paint11_linear_139_2" x1="581.449" y1="441" x2="323.449" y2="441" gradientUnits="userSpaceOnUse">
<stop stop-color="#2BA687"/>
<stop offset="1" stop-color="#125675"/>
</linearGradient>
<linearGradient id="paint12_linear_139_2" x1="581.449" y1="441" x2="323.449" y2="441" gradientUnits="userSpaceOnUse">
<stop stop-color="#2BA687"/>
<stop offset="1" stop-color="#125675"/>
</linearGradient>
<linearGradient id="paint13_linear_139_2" x1="5.44875" y1="441" x2="314.449" y2="441" gradientUnits="userSpaceOnUse">
<stop stop-color="#5FAE3E"/>
<stop offset="1" stop-color="#B1C74B"/>
</linearGradient>
<linearGradient id="paint14_linear_139_2" x1="5.44906" y1="441" x2="314.449" y2="441" gradientUnits="userSpaceOnUse">
<stop stop-color="#5FAE3E"/>
<stop offset="1" stop-color="#B1C74B"/>
</linearGradient>
<linearGradient id="paint15_linear_139_2" x1="5.44938" y1="441" x2="314.449" y2="441" gradientUnits="userSpaceOnUse">
<stop stop-color="#5FAE3E"/>
<stop offset="1" stop-color="#B1C74B"/>
</linearGradient>
<linearGradient id="paint16_linear_139_2" x1="5.44969" y1="441" x2="314.45" y2="441" gradientUnits="userSpaceOnUse">
<stop stop-color="#5FAE3E"/>
<stop offset="1" stop-color="#B1C74B"/>
</linearGradient>
<linearGradient id="paint17_linear_139_2" x1="5.44923" y1="441" x2="314.449" y2="441" gradientUnits="userSpaceOnUse">
<stop stop-color="#5EAE3D"/>
<stop offset="1" stop-color="#B1C74C"/>
</linearGradient>
<linearGradient id="paint18_linear_139_2" x1="5.44922" y1="441" x2="314.449" y2="441" gradientUnits="userSpaceOnUse">
<stop stop-color="#5EAE3D"/>
<stop offset="1" stop-color="#B1C74C"/>
</linearGradient>
<linearGradient id="paint19_linear_139_2" x1="5.44921" y1="441" x2="314.449" y2="441" gradientUnits="userSpaceOnUse">
<stop stop-color="#5EAE3D"/>
<stop offset="1" stop-color="#B1C74C"/>
</linearGradient>
<linearGradient id="paint20_linear_139_2" x1="5.44922" y1="441" x2="314.449" y2="441" gradientUnits="userSpaceOnUse">
<stop stop-color="#5EAE3D"/>
<stop offset="1" stop-color="#B1C74C"/>
</linearGradient>
</defs>
</svg>
