<svg width="5834" height="3258" viewBox="0 0 5834 3258" fill="none" xmlns="http://www.w3.org/2000/svg">
<path d="M4029.64 511.197C4305.88 275.349 4587.42 432.404 4693.67 540.413L4946 261.538C4493.4 -174.037 3992.46 32.2412 3798.56 189.827C3422.46 491.543 3473.63 995.465 3546.23 1209.71C3775.72 1745.15 4318.27 1769.23 4560.87 1714.34C4709 1687.5 4879.6 1600.14 4946 1549.67V755.544H4268.69V1084.88H4560.87V1347.82C4291.01 1471.06 4074.8 1307.1 4000.43 1209.71C3787.94 876.124 3931.37 605.041 4029.64 511.197Z" fill="#001E42" stroke="#001E42"/>
<mask id="mask0_101_413" style="mask-type:alpha" maskUnits="userSpaceOnUse" x="3494" y="0" width="1453" height="1735">
<path d="M4029.64 511.197C4305.88 275.349 4587.42 432.404 4693.67 540.413L4946 261.538C4493.4 -174.037 3992.46 32.2412 3798.56 189.827C3422.46 491.543 3473.63 995.465 3546.23 1209.71C3775.72 1745.15 4318.27 1769.23 4560.87 1714.34C4709 1687.5 4879.6 1600.14 4946 1549.67V755.544H4268.69V1084.88H4560.87V1347.82C4291.01 1471.06 4074.8 1307.1 4000.43 1209.71C3787.94 876.124 3931.37 605.041 4029.64 511.197Z" fill="#001E42" stroke="#001E42"/>
</mask>
<g mask="url(#mask0_101_413)">
<path d="M4561 1348L3451.5 335.5L3376.5 1739L5046 1961.5L5225 1009.5L4561 1348Z" fill="url(#paint0_linear_101_413)"/>
</g>
<path d="M2290 1025.48C2290 1417.62 1972.12 1735.5 1580 1735.5C1187.88 1735.5 870 1417.62 870 1025.48V0.5H1297.07V1062.85C1297.07 1222.06 1426.13 1351.13 1585.34 1351.13C1744.55 1351.13 1873.61 1222.06 1873.61 1062.85V0.5H2290V1025.48Z" fill="#001E42"/>
<path d="M3531 3.5H2413V1979.5L2813.79 1658.07V1057.37H3378.07V699.052H2813.79V372.353H3531V3.5Z" fill="#001E42"/>
<path d="M3912.65 2858.87C3988.51 2858.87 4026.44 2896.8 4026.44 2972.66V2986.88C4026.44 3062.74 3988.51 3100.67 3912.65 3100.67H3713.52V3257.13H3628.18V2858.87H3912.65ZM3941.1 2972.66C3941.1 2953.69 3931.61 2944.21 3912.65 2944.21H3713.52V3015.33H3912.65C3931.61 3015.33 3941.1 3005.84 3941.1 2986.88V2972.66Z" fill="#001E42"/>
<path d="M3173.02 3114.89V2858.87H3258.36V3114.89C3258.36 3152.82 3277.33 3171.79 3315.26 3171.79H3429.05C3466.98 3171.79 3485.94 3152.82 3485.94 3114.89V2858.87H3571.28V3114.89C3571.28 3209.72 3523.87 3257.13 3429.05 3257.13H3315.26C3220.43 3257.13 3173.02 3209.72 3173.02 3114.89Z" fill="#001E42"/>
<path d="M2803.21 3001.1V3114.89C2803.21 3152.82 2822.17 3171.79 2860.1 3171.79H2973.89C3011.82 3171.79 3030.78 3152.82 3030.78 3114.89V3001.1C3030.78 2963.17 3011.82 2944.21 2973.89 2944.21H2860.1C2822.17 2944.21 2803.21 2963.17 2803.21 3001.1ZM2717.86 3114.89V3001.1C2717.86 2906.28 2765.28 2858.87 2860.1 2858.87H2973.89C3068.71 2858.87 3116.13 2906.28 3116.13 3001.1V3114.89C3116.13 3209.72 3068.71 3257.13 2973.89 3257.13H2860.1C2765.28 3257.13 2717.86 3209.72 2717.86 3114.89Z" fill="#001E42"/>
<path d="M2547.18 2858.87C2623.04 2858.87 2660.97 2896.8 2660.97 2972.66V2986.88C2660.97 3062.74 2623.04 3100.67 2547.18 3100.67H2532.95L2689.42 3257.13H2568.8L2412.34 3100.67H2348.05V3257.13H2262.71V2858.87H2547.18ZM2575.63 2972.66C2575.63 2953.69 2566.14 2944.21 2547.18 2944.21H2348.05V3015.33H2547.18C2566.14 3015.33 2575.63 3005.84 2575.63 2986.88V2972.66Z" fill="#001E42"/>
<path d="M1949.79 2858.87H2205.81V2944.21H1949.79C1911.86 2944.21 1892.89 2963.17 1892.89 3001.1V3114.89C1892.89 3152.82 1911.86 3171.79 1949.79 3171.79H2120.47V3100.67H1978.23V3015.33H2205.81V3257.13H1949.79C1854.96 3257.13 1807.55 3209.72 1807.55 3114.89V3001.1C1807.55 2906.28 1854.96 2858.87 1949.79 2858.87Z" fill="#001E42"/>
<path d="M5521.07 2501.99H5833.99V2587.34H5435.72V2189.07H5521.07V2501.99Z" fill="#001E42"/>
<path d="M5245.69 2445.1L5179.7 2330.74L5113.7 2445.1H5245.69ZM5179.7 2160.06L5426.33 2587.34H5327.62L5294.91 2530.44H5064.48L5031.48 2587.34H4933.06L5179.7 2160.06Z" fill="#001E42"/>
<path d="M4923.66 2587.34H4838.32V2189.07H4923.66V2587.34Z" fill="#001E42"/>
<path d="M4639.19 2189.07C4734.02 2189.07 4781.43 2236.48 4781.43 2331.31H4696.09C4696.09 2293.38 4677.12 2274.41 4639.19 2274.41H4525.4C4487.47 2274.41 4468.51 2293.38 4468.51 2331.31V2445.1C4468.51 2483.03 4487.47 2501.99 4525.4 2501.99H4639.19C4677.12 2501.99 4696.09 2483.03 4696.09 2445.1H4781.43C4781.43 2539.92 4734.02 2587.34 4639.19 2587.34H4525.4C4430.58 2587.34 4383.17 2539.92 4383.17 2445.1V2331.31C4383.17 2236.48 4430.58 2189.07 4525.4 2189.07H4639.19Z" fill="#001E42"/>
<path d="M4240.93 2441.68V2189.07H4326.27V2587.34H4265.96L4013.35 2334.72V2587.34H3928.01V2189.07H3988.32L4240.93 2441.68Z" fill="#001E42"/>
<path d="M3737.98 2445.1L3671.99 2330.74L3605.99 2445.1H3737.98ZM3671.99 2160.06L3918.62 2587.34H3819.91L3787.2 2530.44H3556.77L3523.78 2587.34H3425.35L3671.99 2160.06Z" fill="#001E42"/>
<path d="M3330.62 2441.68V2189.07H3415.96V2587.34H3355.65L3103.04 2334.72V2587.34H3017.7V2189.07H3078L3330.62 2441.68Z" fill="#001E42"/>
<path d="M2960.81 2587.34H2875.46V2189.07H2960.81V2587.34Z" fill="#001E42"/>
<path d="M2818.57 2189.07V2274.41H2505.65V2345.53H2790.12V2430.87H2505.65V2587.34H2420.31V2189.07H2818.57Z" fill="#001E42"/>
<path d="M1905.97 2331.31V2445.1C1905.97 2483.03 1924.94 2501.99 1962.87 2501.99H2076.66C2114.59 2501.99 2133.55 2483.03 2133.55 2445.1V2331.31C2133.55 2293.38 2114.59 2274.41 2076.66 2274.41H1962.87C1924.94 2274.41 1905.97 2293.38 1905.97 2331.31ZM1820.63 2445.1V2331.31C1820.63 2236.48 1868.04 2189.07 1962.87 2189.07H2076.66C2171.48 2189.07 2218.89 2236.48 2218.89 2331.31V2445.1C2218.89 2539.92 2171.48 2587.34 2076.66 2587.34H1962.87C1868.04 2587.34 1820.63 2539.92 1820.63 2445.1Z" fill="#001E42"/>
<path d="M1649.95 2189.07C1725.81 2189.07 1763.74 2227 1763.74 2302.86V2317.09C1763.74 2392.94 1725.81 2430.87 1649.95 2430.87H1635.72L1792.18 2587.34H1671.57L1515.11 2430.87H1450.82V2587.34H1365.47V2189.07H1649.95ZM1678.39 2302.86C1678.39 2283.9 1668.91 2274.41 1649.95 2274.41H1450.82V2345.53H1649.95C1668.91 2345.53 1678.39 2336.05 1678.39 2317.09V2302.86Z" fill="#001E42"/>
<path d="M1194.79 2189.07C1270.65 2189.07 1308.58 2227 1308.58 2302.86V2317.09C1308.58 2392.94 1270.65 2430.87 1194.79 2430.87H995.657V2587.34H910.315V2189.07H1194.79ZM1223.24 2302.86C1223.24 2283.9 1213.75 2274.41 1194.79 2274.41H995.657V2345.53H1194.79C1213.75 2345.53 1223.24 2336.05 1223.24 2317.09V2302.86Z" fill="#001E42"/>
<path d="M768.078 2441.68V2189.07H853.42V2587.34H793.112L540.499 2334.72V2587.34H455.157V2189.07H515.466L768.078 2441.68Z" fill="#001E42"/>
<path d="M0 2445.1V2189.07H85.342V2445.1C85.342 2483.03 104.307 2501.99 142.237 2501.99H256.026C293.956 2501.99 312.921 2483.03 312.921 2445.1V2189.07H398.263V2445.1C398.263 2539.92 350.851 2587.34 256.026 2587.34H142.237C47.4122 2587.34 0 2539.92 0 2445.1Z" fill="#001E42"/>
<defs>
<linearGradient id="paint0_linear_101_413" x1="3524.2" y1="491.968" x2="4861.21" y2="1893.63" gradientUnits="userSpaceOnUse">
<stop stop-color="#6A4714"/>
<stop offset="1" stop-color="#C19529"/>
</linearGradient>
</defs>
</svg>
